HIERARCHY
ROOT Pelvis
{
	OFFSET 0.000000 0.000000 0.000000
	CHANNELS 6 Xposition Yposition Zposition Xrotation Yrotation Zrotation
	JOINT LeftUpLeg_virtual
	{
		OFFSET 0.000000 0.000000 0.000000
		CHANNELS 3 Xrotation Yrotation Zrotation
		JOINT LeftUpLeg
		{
			OFFSET 8.479700 -4.795502 -0.379100
			CHANNELS 3 Xrotation Yrotation Zrotation
			JOINT LeftLeg
			{
				OFFSET 0.024144 -32.555107 0.112900
				CHANNELS 3 Xrotation Yrotation Zrotation
				JOINT LeftFoot
				{
					OFFSET -0.024144 -32.638630 -3.012600
					CHANNELS 3 Xrotation Yrotation Zrotation
					JOINT LeftToeBase
					{
						OFFSET 0.970200 -13.225400 11.864200
						CHANNELS 3 Xrotation Yrotation Zrotation
						End Site
						{
							OFFSET 0 0 0
						}
					}
				}
			}
		}
	}
	JOINT RightUpLeg_virtual
	{
		OFFSET 0.000000 0.000000 0.000000
		CHANNELS 3 Xrotation Yrotation Zrotation
		JOINT RightUpLeg
		{
			OFFSET -8.479700 -4.795502 -0.379100
			CHANNELS 3 Xrotation Yrotation Zrotation
			JOINT RightLeg
			{
				OFFSET -0.023144 -32.555092 0.112900
				CHANNELS 3 Xrotation Yrotation Zrotation
				JOINT RightFoot
				{
					OFFSET 0.023144 -32.638641 -3.012700
					CHANNELS 3 Xrotation Yrotation Zrotation
					JOINT RightToeBase
					{
						OFFSET -0.970200 -13.225400 11.864200
						CHANNELS 3 Xrotation Yrotation Zrotation
						End Site
						{
							OFFSET 0 0 0
						}
					}
				}
			}
		}
	}
	JOINT Hips_virtual
	{
		OFFSET 0.000000 0.000000 0.000000
		CHANNELS 3 Xrotation Yrotation Zrotation
		JOINT Hips
		{
			OFFSET -0.000000 -0.000000 -0.000000
			CHANNELS 3 Xrotation Yrotation Zrotation
			JOINT Spine
			{
				OFFSET 0.000000 7.722000 1.166200
				CHANNELS 3 Xrotation Yrotation Zrotation
				JOINT Spine1
				{
					OFFSET 0.000000 12.024101 0.248800
					CHANNELS 3 Xrotation Yrotation Zrotation
					JOINT Spine2
					{
						OFFSET 0.000000 11.502998 -0.491200
						CHANNELS 3 Xrotation Yrotation Zrotation
						JOINT Neck_virtual
						{
							OFFSET 0.000000 0.000000 0.000000
							CHANNELS 3 Xrotation Yrotation Zrotation
							JOINT Neck
							{
								OFFSET 0.000000 18.430702 -3.123100
								CHANNELS 3 Xrotation Yrotation Zrotation
								JOINT Head
								{
									OFFSET 0.000000 9.051102 1.034000
									CHANNELS 3 Xrotation Yrotation Zrotation
									End Site
									{
										OFFSET 0 0 0
									}
								}
							}
						}
						JOINT LeftShoulder_virtual
						{
							OFFSET 0.000000 0.000000 0.000000
							CHANNELS 3 Xrotation Yrotation Zrotation
							JOINT LeftShoulder
							{
								OFFSET 6.197800 13.665199 -4.064700
								CHANNELS 3 Xrotation Yrotation Zrotation
								JOINT LeftArm
								{
									OFFSET 7.778100 -0.187103 -1.709300
									CHANNELS 3 Xrotation Yrotation Zrotation
									JOINT LeftForeArm
									{
										OFFSET 22.049376 0.000000 0.000000
										CHANNELS 3 Xrotation Yrotation Zrotation
										JOINT LeftHand
										{
											OFFSET 23.009392 0.000000 0.000000
											CHANNELS 3 Xrotation Yrotation Zrotation
											End Site
											{
												OFFSET 0 0 0
											}
										}
									}
								}
							}
						}
						JOINT RightShoulder_virtual
						{
							OFFSET 0.000000 0.000000 0.000000
							CHANNELS 3 Xrotation Yrotation Zrotation
							JOINT RightShoulder
							{
								OFFSET -6.197800 13.665199 -4.064700
								CHANNELS 3 Xrotation Yrotation Zrotation
								JOINT RightArm
								{
									OFFSET -7.778100 -0.187103 -1.709300
									CHANNELS 3 Xrotation Yrotation Zrotation
									JOINT RightForeArm
									{
										OFFSET -22.049376 0.000000 0.000000
										CHANNELS 3 Xrotation Yrotation Zrotation
										JOINT RightHand
										{
											OFFSET -23.009392 0.000000 0.000000
											CHANNELS 3 Xrotation Yrotation Zrotation
											End Site
											{
												OFFSET 0 0 0
											}
										}
									}
								}
							}
						}
					}
				}
			}
		}
	}
}
MOTION
Frames: 5
Frame Time: 0.03333333
0.011375 68.474182 -0.014261 0.000000 0.000000 0.000000 11.723231 3.056199 -1.276818 -56.019159 1.466855 4.871411 76.456482 7.582129 -0.617636 -31.183959 5.464543 -5.349026 0.000000 0.000000 0.000000 11.723231 3.056199 -1.276818 -53.720387 -14.569490 -6.427281 75.409250 -8.099989 -4.577521 -34.282444 -10.073076 4.226766 0.000000 0.000000 0.000000 11.723231 3.056199 -1.276818 0.000000 0.000000 0.000000 9.927332 1.434485 1.190239 7.645337 0.753229 0.067568 0.000000 0.000000 0.000000 7.636951 0.840685 0.048856 -11.425856 -1.903120 7.327009 0.000000 0.000000 0.000000 7.636951 0.840685 0.048856 3.557358 -26.212552 4.772373 -62.403272 -21.804179 -66.739008 -179.999827 -70.549591 -179.999814 0.000000 0.000000 0.000000 7.636951 0.840685 0.048856 1.209609 13.189589 10.689365 -58.736779 43.251186 51.659825 179.999937 73.628135 -179.999950 0.000000 0.000000 0.000000 
0.013534 68.476624 -0.011181 0.000000 0.000000 0.000000 11.745906 3.051881 -1.282525 -56.038851 1.458777 4.890084 76.456577 7.578923 -0.645886 -31.178731 5.462192 -5.337335 0.000000 0.000000 0.000000 11.745906 3.051881 -1.282525 -53.735687 -14.573248 -6.417878 75.397324 -8.107098 -4.585617 -34.276198 -10.072208 4.234123 0.000000 0.000000 0.000000 11.745906 3.051881 -1.282525 0.000000 0.000000 0.000000 9.918942 1.442775 1.181837 7.639421 0.760470 0.063173 0.000000 0.000000 0.000000 7.630976 0.847825 0.044425 -11.435408 -1.910255 7.339548 0.000000 0.000000 0.000000 7.630976 0.847825 0.044425 3.557355 -26.212553 4.772374 -62.419343 -21.858323 -66.778657 -179.999909 -70.498617 -179.999909 0.000000 0.000000 0.000000 7.630976 0.847825 0.044425 1.208780 13.185488 10.706561 -58.718487 43.222540 51.623150 179.999841 73.503600 -179.999841 0.000000 0.000000 0.000000 
0.016293 68.477997 -0.007431 0.000000 0.000000 0.000000 11.766518 3.046573 -1.292476 -56.059345 1.445271 4.911446 76.463114 7.572952 -0.678159 -31.173513 5.471601 -5.322089 0.000000 0.000000 0.000000 11.766518 3.046573 -1.292476 -53.748353 -14.580654 -6.406909 75.387243 -8.113157 -4.592523 -34.271458 -10.071460 4.241161 0.000000 0.000000 0.000000 11.766518 3.046573 -1.292476 0.000000 0.000000 0.000000 9.910155 1.453697 1.174993 7.633169 0.769255 0.058698 0.000000 0.000000 0.000000 7.624631 0.856616 0.039882 -11.444189 -1.923865 7.361598 0.000000 0.000000 0.000000 7.624631 0.856616 0.039882 3.557359 -26.212548 4.772374 -62.439554 -21.913829 -66.819543 179.999827 -70.454228 179.999827 0.000000 0.000000 0.000000 7.624631 0.856616 0.039882 1.207720 13.175771 10.734723 -58.706890 43.206144 51.589679 -179.999896 73.392746 179.999882 0.000000 0.000000 0.000000 
0.019935 68.478378 -0.002895 0.000000 0.000000 0.000000 11.784954 3.040178 -1.305521 -56.079617 1.431585 4.933769 76.474001 7.564582 -0.708616 -31.169234 5.489488 -5.304758 0.000000 0.000000 0.000000 11.784954 3.040178 -1.305521 -53.758185 -14.590406 -6.396367 75.378979 -8.118754 -4.596992 -34.268172 -10.068970 4.248306 0.000000 0.000000 0.000000 11.784954 3.040178 -1.305521 0.000000 0.000000 0.000000 9.901124 1.467723 1.169211 7.626652 0.780095 0.054114 0.000000 0.000000 0.000000 7.617976 0.867545 0.035189 -11.454982 -1.944256 7.391725 0.000000 0.000000 0.000000 7.617976 0.867545 0.035189 3.557361 -26.212555 4.772373 -62.470385 -21.974013 -66.864533 -179.999964 -70.420268 -179.999950 0.000000 0.000000 0.000000 7.617976 0.867545 0.035189 1.206693 13.162151 10.768365 -58.707648 43.191162 51.562727 -179.999841 73.292957 179.999841 0.000000 0.000000 0.000000 
0.024797 68.478271 0.002443 0.000000 0.000000 0.000000 11.802345 3.032310 -1.319856 -56.098676 1.423523 4.954885 76.485811 7.554748 -0.731312 -31.168725 5.510591 -5.287276 0.000000 0.000000 0.000000 11.802345 3.032310 -1.319856 -53.766723 -14.600612 -6.388349 75.371957 -8.124877 -4.598137 -34.266362 -10.062418 4.255903 0.000000 0.000000 0.000000 11.802345 3.032310 -1.319856 0.000000 0.000000 0.000000 9.892298 1.484616 1.163589 7.619997 0.793060 0.049375 0.000000 0.000000 0.000000 7.611133 0.880646 0.030306 -11.470300 -1.969856 7.427055 0.000000 0.000000 0.000000 7.611133 0.880646 0.030306 3.557358 -26.212552 4.772373 -62.514174 -22.042327 -66.916046 -179.999909 -70.391151 -179.999909 0.000000 0.000000 0.000000 7.611133 0.880646 0.030306 1.205943 13.146149 10.801877 -58.722695 43.168571 51.544094 179.999937 73.190586 -179.999950 0.000000 0.000000 0.000000 
